<?xml version="1.0" standalone="no"?><!DOCTYPE svg PUBLIC "-//W3C//DTD SVG 1.1//EN" "http://www.w3.org/Graphics/SVG/1.1/DTD/svg11.dtd"><svg t="1526045503159" class="icon" style="" viewBox="0 0 1024 1024" version="1.1" xmlns="http://www.w3.org/2000/svg" p-id="4088" xmlns:xlink="http://www.w3.org/1999/xlink" width="48" height="48"><defs><style type="text/css"></style></defs><path d="M694.7 338.4m-130.3 0a130.3 130.3 0 1 0 260.6 0 130.3 130.3 0 1 0-260.6 0Z" fill="#FFE08A" p-id="4089"></path><path d="M694.7 217.1c67 0 121.3 54.3 121.3 121.3s-54.3 121.3-121.3 121.3-121.3-54.3-121.3-121.3 54.3-121.3 121.3-121.3m0-18c-37.2 0-72.2 14.5-98.5 40.8-26.3 26.3-40.8 61.3-40.8 98.5s14.5 72.2 40.8 98.5c26.3 26.3 61.3 40.8 98.5 40.8s72.2-14.5 98.5-40.8c26.3-26.3 40.8-61.3 40.8-98.5s-14.5-72.2-40.8-98.5c-26.2-26.3-61.2-40.8-98.5-40.8z" fill="#330867" p-id="4090"></path><path d="M816.1 338.4c0 67-54.3 121.3-121.3 121.3s-121.3-54.3-121.3-121.3c121.2 66.4 153.2 58.9 242.6 0z" fill="#EAB236" p-id="4091"></path><path d="M654.2 637.8c-92.8-0.8-475.8-3.8-479.7-3.9-3.1 0-6-1.7-7.6-4.3-1.6-2.7-1.7-6-0.3-8.8 16-31.6 56-70.5 118.8-115.5 51.2-36.7 109-71.3 150.7-95L397.5 330l-236.3 52c-3.1 0.7-6.2 1-9.4 1-20.4 0-38.4-14.5-42.8-34.4-2.5-11.4-0.4-23.1 5.9-33 6.3-9.9 16.1-16.7 27.4-19.2l268.6-59.2c3.1-0.7 6.2-1 9.4-1 7.9 0 15.6 2.2 22.5 6.2 8.6 4.4 15.3 11.3 19.4 19.9l55 114.4c0.2 0.3 0.3 0.7 0.4 1.1 4.3 13 28.8 52.7 61.9 90.5 37.8 43.2 72.4 68 97.6 70.1l185.7-40.9c3.1-0.7 6.2-1 9.4-1 20.4 0 38.4 14.5 42.8 34.4 5.1 23.3-9.4 46.4-32.5 52-11.6 4.8-134.2 54.9-226 54.9h-2.3z" fill="#FFE08A" p-id="4092"></path><path d="M420.3 245.3c6.5 0 12.7 1.8 18.1 5.1 6.6 3.3 12.2 8.8 15.7 15.9l55 114.4c10.2 30.8 103.5 163.3 168.8 166.8l186.9-41.2c2.5-0.5 5-0.8 7.4-0.8 16 0 30.4 11.1 34 27.3 4.1 18.7-7.8 37.3-26.5 41.5 0 0-129.6 54.5-223.3 54.5h-2.1c-93.9-0.8-479.7-3.9-479.7-3.9 34.9-68.8 183.5-160.3 273.2-210.9l-45.4-94.4-243.2 53.6c-2.5 0.5-5 0.8-7.4 0.8-16 0-30.4-11.1-34-27.3-4.1-18.7 7.8-37.3 26.5-41.5L412.9 246c2.5-0.4 5-0.7 7.4-0.7m0-18c-3.8 0-7.6 0.4-11.3 1.2l-268.6 59.2C112 294 94 322.2 100.2 350.6c2.6 11.8 9.3 22.4 18.8 30 9.3 7.4 21 11.5 32.8 11.5 3.8 0 7.6-0.4 11.3-1.2l229.3-50.5 31.9 66.4c-41.2 23.6-95.6 56.5-144.2 91.3-29.1 20.9-53.7 40.7-73 58.9-23.4 22-39.3 41.6-48.5 59.8-2.8 5.6-2.6 12.2 0.7 17.5 3.2 5.3 9 8.6 15.2 8.6 3.9 0 386.9 3 479.7 3.9h2.3c40.7 0 91.8-9.4 152.1-28 39.8-12.3 70-24.5 76.8-27.3 13-3.3 24.1-11.3 31.4-22.7 7.6-11.9 10.1-26 7.1-39.8-2.6-11.8-9.3-22.4-18.8-30-9.3-7.4-21-11.5-32.8-11.5-3.8 0-7.6 0.4-11.3 1.2l-184.3 40.6c-22.5-2.6-55.2-26.8-90.3-66.9-33.4-38.2-56.6-76.6-60.2-87.4-0.2-0.7-0.5-1.4-0.9-2.1l-55-114.4c-5-10.3-13-18.6-23.2-23.9-8.1-4.7-17.4-7.3-26.8-7.3z" fill="#330867" p-id="4093"></path><path d="M901.7 731.2c-17.5-24.3-46.1-40.1-78.3-40.1s-60.8 15.8-78.3 40.1c-17.5-24.3-46.1-40.1-78.3-40.1s-60.8 15.8-78.3 40.1c-17.5-24.3-46.1-40.1-78.3-40.1s-60.8 15.8-78.3 40.1c-17.5-24.3-46.1-40.1-78.3-40.1s-60.8 15.8-78.3 40.1c-17.5-24.3-46.1-40.1-78.3-40.1-32.2 0-60.8 15.8-78.3 40.1" fill="#66C1FF" p-id="4094"></path><path d="M901.7 740.2c-2.8 0-5.5-1.3-7.3-3.7-16.4-22.8-43-36.4-71-36.4s-54.6 13.6-71 36.4c-1.7 2.3-4.4 3.7-7.3 3.7s-5.6-1.4-7.3-3.7c-16.4-22.8-43-36.4-71-36.4s-54.6 13.6-71 36.4c-1.7 2.3-4.4 3.7-7.3 3.7s-5.6-1.4-7.3-3.7c-16.4-22.8-43-36.4-71-36.4s-54.6 13.6-71 36.4c-1.7 2.3-4.4 3.7-7.3 3.7s-5.6-1.4-7.3-3.7c-16.4-22.8-43-36.4-71-36.4s-54.6 13.6-71 36.4c-1.7 2.3-4.4 3.7-7.3 3.7s-5.6-1.4-7.3-3.7c-16.4-22.8-43-36.4-71-36.4s-54.6 13.6-71 36.4c-2.9 4-8.5 4.9-12.6 2-4-2.9-4.9-8.5-2-12.6 19.8-27.4 51.8-43.8 85.6-43.8 29.9 0 58.4 12.8 78.3 34.8 19.9-22 48.4-34.8 78.3-34.8s58.4 12.8 78.3 34.8c19.9-22 48.4-34.8 78.3-34.8s58.4 12.8 78.3 34.8c19.9-22 48.4-34.8 78.3-34.8s58.4 12.8 78.3 34.8c19.9-22 48.4-34.8 78.3-34.8 33.8 0 65.8 16.4 85.6 43.8 2.9 4 2 9.7-2 12.6-1.6 1.1-3.4 1.7-5.3 1.7z" fill="#330867" p-id="4095"></path><path d="M859.7 827c-17.5-24.3-46.1-40.1-78.3-40.1s-60.8 15.8-78.3 40.1c-17.5-24.3-46.1-40.1-78.3-40.1-32.2 0-60.8 15.8-78.3 40.1" fill="#66C1FF" p-id="4096"></path><path d="M546.6 836c-1.8 0-3.7-0.6-5.3-1.7-4-2.9-4.9-8.5-2-12.6 19.8-27.4 51.8-43.8 85.6-43.8 29.9 0 58.4 12.8 78.3 34.8 19.9-22 48.4-34.8 78.3-34.8 33.8 0 65.8 16.4 85.6 43.8 2.9 4 2 9.7-2 12.6-4 2.9-9.7 2-12.6-2-16.4-22.8-43-36.4-71-36.4s-54.6 13.6-71 36.4c-1.7 2.3-4.4 3.7-7.3 3.7s-5.6-1.4-7.3-3.7c-16.4-22.8-43-36.4-71-36.4s-54.6 13.6-71 36.4c-1.8 2.4-4.5 3.7-7.3 3.7z" fill="#330867" p-id="4097"></path><path d="M474.9 823.1c-17.5-24.3-46.1-40.1-78.3-40.1s-60.8 15.8-78.3 40.1c-17.5-24.3-46-40.1-78.3-40.1s-60.8 15.8-78.3 40.1" fill="#66C1FF" p-id="4098"></path><path d="M474.9 832.1c-2.8 0-5.5-1.3-7.3-3.7-16.4-22.8-43-36.4-71-36.4s-54.6 13.6-71 36.4c-1.7 2.3-4.4 3.7-7.3 3.7s-5.6-1.4-7.3-3.7c-16.4-22.8-43-36.4-71-36.4s-54.6 13.6-71 36.4c-2.9 4-8.5 4.9-12.6 2-4-2.9-4.9-8.5-2-12.6 19.8-27.4 51.8-43.8 85.6-43.8 29.9 0 58.4 12.8 78.3 34.8 19.9-22 48.4-34.8 78.3-34.8 33.8 0 65.8 16.4 85.6 43.8 2.9 4 2 9.7-2 12.6-1.6 1.2-3.5 1.7-5.3 1.7z" fill="#330867" p-id="4099"></path></svg>