<?xml version="1.0" standalone="no"?><!DOCTYPE svg PUBLIC "-//W3C//DTD SVG 1.1//EN" "http://www.w3.org/Graphics/SVG/1.1/DTD/svg11.dtd"><svg t="1525077049872" class="icon" style="" viewBox="0 0 1024 1024" version="1.1" xmlns="http://www.w3.org/2000/svg" p-id="1872" xmlns:xlink="http://www.w3.org/1999/xlink" width="200" height="200"><defs><style type="text/css"></style></defs><path d="M510.107395 120.31318c-197.189058 0-357.623004 160.427806-357.623004 357.616864s160.434969 357.616864 357.623004 357.616864S867.724259 675.119101 867.724259 477.930043 707.296453 120.31318 510.107395 120.31318zM510.107395 788.743952c-171.384345 0-310.827211-139.429563-310.827211-310.813908s139.442866-310.813908 310.827211-310.813908 310.813908 139.429563 310.813908 310.813908S681.491741 788.743952 510.107395 788.743952zM316.535725 819.980373c-10.43363-7.600095-25.073048-5.328355-32.69975 5.119601l-71.967078 98.712209c-7.613398 10.446933-5.315052 25.086351 5.118578 32.69975 4.16588 3.03001 8.984628 4.492314 13.776771 4.492314 7.221472 0 14.338566-3.329838 18.921955-9.610892l71.967078-98.712209C329.268724 842.23319 326.970378 827.593771 316.535725 819.980373zM731.089345 825.099974c-7.626701-10.446933-22.265096-12.731976-32.69975-5.119601-10.43363 7.613398-12.731976 22.251793-5.119601 32.69975l71.967078 98.712209c4.583388 6.281053 11.700483 9.610892 18.921955 9.610892 4.792143 0 9.610892-1.462305 13.776771-4.492314 10.43363-7.613398 12.731976-22.251793 5.118578-32.69975L731.089345 825.099974zM184.637696 214.428697c12.719696-67.005067 72.411193-112.149243 132.886543-100.6964 12.69309 2.363837 24.955368-5.941316 27.358091-18.635429 2.402723-12.706393-5.941316-24.942065-18.635429-27.358091-86.019119-16.271592-170.078607 45.601594-187.590446 137.967258-2.408863 12.69309 5.929036 24.942065 18.628266 27.358091 1.475608 0.274246 2.937912 0.405229 4.387937 0.405229C172.694689 233.468332 182.509219 225.64618 184.637696 214.428697zM879.843274 205.705012C862.318132 113.339348 778.101055 51.531654 692.239526 67.737754c-12.69309 2.416026-21.038152 14.651698-18.635429 27.358091 2.402723 12.69309 14.691607 20.998243 27.358091 18.635429 60.462047-11.43954 120.18015 33.665751 132.886543 100.6964 2.128477 11.217483 11.949146 19.039635 22.970154 19.039635 1.450025 0 2.912329-0.130983 4.387937-0.405229C873.900935 230.647077 882.245997 218.398102 879.843274 205.705012zM688.414407 469.969745 525.321912 469.969745 525.321912 289.444205c0-12.928451-10.473539-23.400966-23.400966-23.400966-12.928451 0-23.400966 10.473539-23.400966 23.400966l0 203.927529c0 12.928451 10.473539 23.400966 23.400966 23.400966l186.493461 0c12.928451 0 23.400966-10.473539 23.400966-23.400966S701.342858 469.969745 688.414407 469.969745z" p-id="1873"></path></svg>