<?xml version="1.0" standalone="no"?><!DOCTYPE svg PUBLIC "-//W3C//DTD SVG 1.1//EN" "http://www.w3.org/Graphics/SVG/1.1/DTD/svg11.dtd"><svg t="1525086175133" class="icon" style="" viewBox="0 0 1024 1024" version="1.1" xmlns="http://www.w3.org/2000/svg" p-id="1118" xmlns:xlink="http://www.w3.org/1999/xlink" width="200" height="200"><defs><style type="text/css"></style></defs><path d="M865.28 450.56h-44.032c-5.632 0-10.24-4.608-10.24-10.24V308.224c0-5.632 4.608-10.24 10.24-10.24h44.032c5.632 0 10.24 4.608 10.24 10.24V440.32c0 5.632-4.608 10.24-10.24 10.24zM194.56 512h122.88c5.632 0 10.24 4.608 10.24 10.24v30.72c0 5.632-4.608 10.24-10.24 10.24H194.56c-5.632 0-10.24-4.608-10.24-10.24v-30.72c0-5.632 4.608-10.24 10.24-10.24z" fill="#7ED321" p-id="1119"></path><path d="M228.864 604.16h-2.048c-5.632 1.024-9.216 6.656-8.192 11.776l47.104 239.104c1.024 4.608 5.12 8.192 10.24 8.192h84.48c5.632-1.024 9.216-6.656 7.68-12.288l-49.664-239.104c-1.024-4.608-5.12-8.192-10.24-8.192H228.864z m0-15.36h79.36c12.288 0 22.528 8.704 25.088 20.48l49.664 239.104c3.072 13.824-6.144 27.648-19.968 30.208-1.536 0.512-3.584 0.512-5.12 0.512h-81.92c-12.288 0-22.528-8.704-25.088-20.48L203.776 619.52c-2.56-13.824 6.144-27.136 19.968-30.208 1.536-0.512 3.584-0.512 5.12-0.512zM199.68 547.84h112.64v-20.48H199.68v20.48z m-5.12-35.84h122.88c5.632 0 10.24 4.608 10.24 10.24v30.72c0 5.632-4.608 10.24-10.24 10.24H194.56c-5.632 0-10.24-4.608-10.24-10.24v-30.72c0-5.632 4.608-10.24 10.24-10.24z" fill="" p-id="1120"></path><path d="M822.272 146.944c-5.12-13.312-20.48-19.456-33.28-13.824-89.6 36.864-181.76 64.512-275.968 82.944-99.84 19.968-213.504 31.744-339.968 35.84-13.824 0.512-24.576 11.776-24.576 25.6V471.04c0 13.824 11.264 25.6 25.088 25.6 116.224 1.536 229.376 12.8 339.456 34.304 102.4 19.968 194.56 47.616 275.456 82.432 3.072 1.536 6.656 2.048 10.24 2.048 14.336 0 25.6-11.264 25.6-25.6V156.16c0-3.072-0.512-6.144-2.048-9.216zM163.84 471.04V277.504c0-5.632 4.608-10.24 9.728-10.24l41.472-1.536v216.576c-13.824-0.512-27.136-1.024-40.96-1.024-5.632 0-10.24-4.608-10.24-10.24z m645.12 119.296c0 5.632-4.608 10.24-10.24 10.24-1.536 0-2.56-0.512-4.096-1.024-81.92-35.328-175.104-62.976-278.528-83.456C423.424 497.664 327.68 486.912 230.4 482.816V264.704c104.96-5.632 200.192-16.896 285.696-33.792 95.232-18.944 187.904-47.104 278.528-83.968 5.12-2.048 11.264 0.512 13.312 5.632 0.512 1.024 0.512 2.56 0.512 4.096v433.664z" fill="" p-id="1121"></path></svg>